# xmcd CD database file
#
# Track frame offsets:
#	150
#	615
#	22013
#	37236
#
# Disc length: 717 seconds
#
# Revision: 2
# Processed by: cddbd v1.5.2PL0 Copyright (c) Steve Scherf et al.
# Submitted via: CDex 1.51
#
DISCID=2b02cb04
DTITLE=鄧麗欣 - 十分愛珍藏版
DYEAR=2007
DGENRE=粵語流行
TTITLE0=電腦檔案,不能播放
TTITLE1=日久生情 MV
TTITLE2=Fantasy Tale
TTITLE3=電燈膽  ( 100 Watt )
EXTD=YEAR: 2007
EXTT0=
EXTT1=
EXTT2=
EXTT3=
PLAYORDER=
